<?xml version="1.0" encoding="UTF-8" standalone="no"?>
<!-- Created with Inkscape (http://www.inkscape.org/) -->

<svg
   xmlns:svg="http://www.w3.org/2000/svg"
   xmlns="http://www.w3.org/2000/svg"
   xmlns:xlink="http://www.w3.org/1999/xlink"
   version="1.2"
   width="800"
   height="750"
   id="svg2">
  <defs
     id="defs4">
    <linearGradient
       id="linearGradient3664">
      <stop
         id="stop3666"
         style="stop-color:#ffffff;stop-opacity:1"
         offset="0" />
      <stop
         id="stop3668"
         style="stop-color:#dba4a4;stop-opacity:1"
         offset="0.51477426" />
      <stop
         id="stop3670"
         style="stop-color:#b86f6f;stop-opacity:1"
         offset="0.71971148" />
      <stop
         id="stop3672"
         style="stop-color:#6d2b2b;stop-opacity:1"
         offset="1" />
    </linearGradient>
    <linearGradient
       id="linearGradient3318">
      <stop
         id="stop3320"
         style="stop-color:#ffffff;stop-opacity:1"
         offset="0" />
      <stop
         id="stop3660"
         style="stop-color:#dba4a4;stop-opacity:1"
         offset="0.5" />
      <stop
         id="stop3662"
         style="stop-color:#b86f6f;stop-opacity:1"
         offset="0.75" />
      <stop
         id="stop3322"
         style="stop-color:#7c3131;stop-opacity:1"
         offset="1" />
    </linearGradient>
    <radialGradient
       cx="195.61635"
       cy="693.44769"
       r="156"
       fx="195.61635"
       fy="693.44769"
       id="radialGradient3324"
       xlink:href="#linearGradient3318"
       gradientUnits="userSpaceOnUse" />
    <radialGradient
       cx="235.17984"
       cy="734.14154"
       r="156"
       fx="235.17984"
       fy="734.14154"
       id="radialGradient3328"
       xlink:href="#linearGradient3664"
       gradientUnits="userSpaceOnUse"
       gradientTransform="matrix(0.81884855,0.76083634,-0.68068022,0.73258067,542.31879,17.390263)" />
    <radialGradient
       cx="195.61635"
       cy="693.44769"
       r="156"
       fx="195.61635"
       fy="693.44769"
       id="radialGradient3332"
       xlink:href="#linearGradient3318"
       gradientUnits="userSpaceOnUse" />
    <radialGradient
       cx="195.61635"
       cy="693.44769"
       r="156"
       fx="195.61635"
       fy="693.44769"
       id="radialGradient3338"
       xlink:href="#linearGradient3318"
       gradientUnits="userSpaceOnUse" />
    <radialGradient
       cx="195.61635"
       cy="693.44769"
       r="156"
       fx="195.61635"
       fy="693.44769"
       id="radialGradient3342"
       xlink:href="#linearGradient3318"
       gradientUnits="userSpaceOnUse" />
    <radialGradient
       cx="195.61635"
       cy="693.44769"
       r="156"
       fx="195.61635"
       fy="693.44769"
       id="radialGradient3346"
       xlink:href="#linearGradient3318"
       gradientUnits="userSpaceOnUse" />
    <radialGradient
       cx="195.61635"
       cy="693.44769"
       r="156"
       fx="195.61635"
       fy="693.44769"
       id="radialGradient3350"
       xlink:href="#linearGradient3318"
       gradientUnits="userSpaceOnUse" />
    <radialGradient
       cx="195.61635"
       cy="693.44769"
       r="156"
       fx="195.61635"
       fy="693.44769"
       id="radialGradient3354"
       xlink:href="#linearGradient3318"
       gradientUnits="userSpaceOnUse" />
    <radialGradient
       cx="195.61635"
       cy="693.44769"
       r="156"
       fx="195.61635"
       fy="693.44769"
       id="radialGradient3358"
       xlink:href="#linearGradient3318"
       gradientUnits="userSpaceOnUse" />
    <radialGradient
       cx="195.61635"
       cy="693.44769"
       r="156"
       fx="195.61635"
       fy="693.44769"
       id="radialGradient3362"
       xlink:href="#linearGradient3318"
       gradientUnits="userSpaceOnUse" />
    <radialGradient
       cx="195.61635"
       cy="693.44769"
       r="156"
       fx="195.61635"
       fy="693.44769"
       id="radialGradient3366"
       xlink:href="#linearGradient3318"
       gradientUnits="userSpaceOnUse" />
    <radialGradient
       cx="195.61635"
       cy="693.44769"
       r="156"
       fx="195.61635"
       fy="693.44769"
       id="radialGradient3370"
       xlink:href="#linearGradient3318"
       gradientUnits="userSpaceOnUse" />
    <radialGradient
       cx="195.61635"
       cy="693.44769"
       r="156"
       fx="195.61635"
       fy="693.44769"
       id="radialGradient3374"
       xlink:href="#linearGradient3318"
       gradientUnits="userSpaceOnUse" />
    <radialGradient
       cx="195.61635"
       cy="693.44769"
       r="156"
       fx="195.61635"
       fy="693.44769"
       id="radialGradient3378"
       xlink:href="#linearGradient3318"
       gradientUnits="userSpaceOnUse" />
    <radialGradient
       cx="195.61635"
       cy="693.44769"
       r="156"
       fx="195.61635"
       fy="693.44769"
       id="radialGradient3382"
       xlink:href="#linearGradient3318"
       gradientUnits="userSpaceOnUse" />
    <radialGradient
       cx="195.61635"
       cy="693.44769"
       r="156"
       fx="195.61635"
       fy="693.44769"
       id="radialGradient3386"
       xlink:href="#linearGradient3318"
       gradientUnits="userSpaceOnUse" />
    <radialGradient
       cx="195.61635"
       cy="693.44769"
       r="156"
       fx="195.61635"
       fy="693.44769"
       id="radialGradient3390"
       xlink:href="#linearGradient3318"
       gradientUnits="userSpaceOnUse" />
    <radialGradient
       cx="195.61635"
       cy="693.44769"
       r="156"
       fx="195.61635"
       fy="693.44769"
       id="radialGradient3394"
       xlink:href="#linearGradient3318"
       gradientUnits="userSpaceOnUse" />
    <radialGradient
       cx="195.61635"
       cy="693.44769"
       r="156"
       fx="195.61635"
       fy="693.44769"
       id="radialGradient3398"
       xlink:href="#linearGradient3318"
       gradientUnits="userSpaceOnUse" />
    <radialGradient
       cx="195.61635"
       cy="693.44769"
       r="156"
       fx="195.61635"
       fy="693.44769"
       id="radialGradient3402"
       xlink:href="#linearGradient3318"
       gradientUnits="userSpaceOnUse" />
    <radialGradient
       cx="195.61635"
       cy="693.44769"
       r="156"
       fx="195.61635"
       fy="693.44769"
       id="radialGradient3406"
       xlink:href="#linearGradient3318"
       gradientUnits="userSpaceOnUse" />
    <radialGradient
       cx="195.61635"
       cy="693.44769"
       r="156"
       fx="195.61635"
       fy="693.44769"
       id="radialGradient3410"
       xlink:href="#linearGradient3318"
       gradientUnits="userSpaceOnUse" />
    <radialGradient
       cx="195.61635"
       cy="693.44769"
       r="156"
       fx="195.61635"
       fy="693.44769"
       id="radialGradient3414"
       xlink:href="#linearGradient3318"
       gradientUnits="userSpaceOnUse" />
    <radialGradient
       cx="195.61635"
       cy="693.44769"
       r="156"
       fx="195.61635"
       fy="693.44769"
       id="radialGradient3418"
       xlink:href="#linearGradient3318"
       gradientUnits="userSpaceOnUse" />
    <radialGradient
       cx="195.61635"
       cy="693.44769"
       r="156"
       fx="195.61635"
       fy="693.44769"
       id="radialGradient3422"
       xlink:href="#linearGradient3318"
       gradientUnits="userSpaceOnUse" />
    <radialGradient
       cx="195.61635"
       cy="693.44769"
       r="156"
       fx="195.61635"
       fy="693.44769"
       id="radialGradient3430"
       xlink:href="#linearGradient3318"
       gradientUnits="userSpaceOnUse" />
    <radialGradient
       cx="195.61635"
       cy="693.44769"
       r="156"
       fx="195.61635"
       fy="693.44769"
       id="radialGradient3212"
       xlink:href="#linearGradient3318"
       gradientUnits="userSpaceOnUse" />
    <radialGradient
       cx="195.61635"
       cy="693.44769"
       r="156"
       fx="195.61635"
       fy="693.44769"
       id="radialGradient6206"
       xlink:href="#linearGradient3318"
       gradientUnits="userSpaceOnUse" />
    <radialGradient
       cx="195.61635"
       cy="693.44769"
       r="156"
       fx="195.61635"
       fy="693.44769"
       id="radialGradient3218"
       xlink:href="#linearGradient3318"
       gradientUnits="userSpaceOnUse" />
    <radialGradient
       cx="195.61635"
       cy="693.44769"
       r="156"
       fx="195.61635"
       fy="693.44769"
       id="radialGradient3001"
       xlink:href="#linearGradient3318"
       gradientUnits="userSpaceOnUse"
       gradientTransform="translate(162.1462,-171.17649)" />
    <radialGradient
       cx="195.61635"
       cy="693.44769"
       r="156"
       fx="195.61635"
       fy="693.44769"
       id="radialGradient3004"
       xlink:href="#linearGradient3318"
       gradientUnits="userSpaceOnUse"
       gradientTransform="translate(398.5223,-250.71755)" />
    <radialGradient
       cx="195.61635"
       cy="693.44769"
       r="156"
       fx="195.61635"
       fy="693.44769"
       id="radialGradient3007"
       xlink:href="#linearGradient3318"
       gradientUnits="userSpaceOnUse"
       gradientTransform="translate(-106.5547,-247.38156)" />
    <radialGradient
       cx="195.61635"
       cy="693.44769"
       r="156"
       fx="195.61635"
       fy="693.44769"
       id="radialGradient3010"
       xlink:href="#linearGradient3318"
       gradientUnits="userSpaceOnUse"
       gradientTransform="translate(-100.5137,-569.90555)" />
    <radialGradient
       cx="195.61635"
       cy="693.44769"
       r="156"
       fx="195.61635"
       fy="693.44769"
       id="radialGradient3013"
       xlink:href="#linearGradient3318"
       gradientUnits="userSpaceOnUse"
       gradientTransform="translate(391.0323,-580.86455)" />
    <radialGradient
       cx="235.17984"
       cy="734.14154"
       r="156"
       fx="235.17984"
       fy="734.14154"
       id="radialGradient3016"
       xlink:href="#linearGradient3664"
       gradientUnits="userSpaceOnUse"
       gradientTransform="matrix(0.81884855,0.76083634,-0.68068022,0.73258067,680.78595,-385.17365)" />
    <radialGradient
       cx="195.61635"
       cy="693.44769"
       r="156"
       fx="195.61635"
       fy="693.44769"
       id="radialGradient3019"
       xlink:href="#linearGradient3318"
       gradientUnits="userSpaceOnUse"
       gradientTransform="translate(132.8518,-672.96155)" />
    <radialGradient
       cx="195.61635"
       cy="693.44769"
       r="156"
       fx="195.61635"
       fy="693.44769"
       id="radialGradient3022"
       xlink:href="#linearGradient3318"
       gradientUnits="userSpaceOnUse"
       gradientTransform="translate(130.8315,-344.66185)" />
  </defs>
  <path
     d="M 169.94563,529.66436 406.37419,423.95007"
     id="path3216"
     style="fill:none;stroke:#000000;stroke-width:2;stroke-linecap:butt;stroke-linejoin:miter;stroke-miterlimit:4;stroke-opacity:1;stroke-dasharray:none" />
  <path
     d="m 406.28182,290.85539 c 71.92008,23.78111 129.45145,92.0501 129.45145,177.12994 -72.6885,28.09545 -178.99249,24.9925 -249.20313,2.87151 0,-76.40959 62.13599,-155.48534 119.75168,-180.00145 z"
     id="path3400"
     style="fill:url(#radialGradient3022);fill-opacity:1;stroke:#000000;stroke-width:1;stroke-linecap:butt;stroke-miterlimit:4;stroke-opacity:1;stroke-dasharray:none;stroke-dashoffset:0" />
  <path
     d="m 535.1634,142.13096 c 1.55058,197.7758 -242.44196,195.35693 -246.74778,7.81811 L 409.28036,97.257752 535.1634,142.13096 z"
     id="path3396"
     style="fill:#501616;fill-opacity:1;stroke:#000000;stroke-width:1;stroke-linecap:butt;stroke-miterlimit:4;stroke-opacity:1;stroke-dasharray:none;stroke-dashoffset:0" />
  <path
     d="m 558.52294,571.17159 c -12.06345,-20.90058 -48.40691,-40.5593 -47.26086,-63.99426 18.05285,-83.8551 59.75113,-124.89056 166.06922,-142.94566 l -2.38044,155.27008 -116.42792,51.66984 z"
     id="path3416"
     style="fill:url(#radialGradient3004);fill-opacity:1;stroke:#000000;stroke-width:1;stroke-linecap:butt;stroke-miterlimit:4;stroke-opacity:1;stroke-dasharray:none;stroke-dashoffset:0" />
  <path
     d="M 675.90026,363.67433 C 575.10699,369.01099 449.56946,198.59807 535.98471,141.97787 l 131.47615,47.37688 8.4394,174.31958 z"
     id="path3404"
     style="fill:url(#radialGradient3013);fill-opacity:1;stroke:#000000;stroke-width:1;stroke-linecap:butt;stroke-miterlimit:4;stroke-opacity:1;stroke-dasharray:none;stroke-dashoffset:0" />
  <path
     d="m 335.50066,195.28581 c -0.055,100.18157 -50.91378,149.04067 -156.52238,179.78257 l -3.06342,-174.75463 159.5858,-5.02794 z"
     id="path3408"
     style="fill:url(#radialGradient3010);fill-opacity:1;stroke:#000000;stroke-width:1;stroke-linecap:butt;stroke-miterlimit:4;stroke-opacity:1;stroke-dasharray:none;stroke-dashoffset:0" />
  <path
     d="M 170.912,373.02914 C 298.41426,362.2453 360.1345,497.75301 304.02619,575.91333 L 169.87386,522.83774 170.912,373.02914 z"
     id="path3412"
     style="fill:url(#radialGradient3007);fill-opacity:1;stroke:#000000;stroke-width:1;stroke-linecap:butt;stroke-miterlimit:4;stroke-opacity:1;stroke-dasharray:none;stroke-dashoffset:0" />
  <path
     d="M 305.56245,575.45626 C 328.21198,388.82375 541.51029,381.90997 558.36387,570.46633"
     id="path3420"
     style="fill:url(#radialGradient3001);fill-opacity:1;stroke:#000000;stroke-width:1;stroke-linecap:butt;stroke-miterlimit:4;stroke-opacity:1;stroke-dasharray:none;stroke-dashoffset:0" />
  <path
     d="m 536.92898,141.26732 c -61.27978,38.99116 -180.06682,29.22885 -248.59842,8.71084 L 407.82824,97.273802 536.92898,141.26732 z"
     id="path3438"
     style="fill:#d7adad;fill-opacity:1;stroke:#000000;stroke-width:1.00000143;stroke-linecap:butt;stroke-miterlimit:4;stroke-opacity:1;stroke-dasharray:none;stroke-dashoffset:0" />
  <path
     d="M 558.25465,242.853 C 502.48571,224.45567 486.94936,171.57572 538.46451,141.94531 L 676.39824,191.5598 558.25465,242.853 z"
     id="path3440"
     style="fill:#d7adad;fill-opacity:1;stroke:#000000;stroke-width:1.00000143;stroke-linecap:butt;stroke-miterlimit:4;stroke-opacity:1;stroke-dasharray:none;stroke-dashoffset:0" />
  <path
     d="m 300.83147,246.52363 c 89.1209,-27.212 184.49089,-29.80185 257.91158,-2.89503 L 438.32824,294.9218 300.83147,246.52363 z"
     id="path3444"
     style="fill:#d7adad;fill-opacity:1;stroke:#000000;stroke-width:1.00000143;stroke-linecap:butt;stroke-miterlimit:4;stroke-opacity:1;stroke-dasharray:none;stroke-dashoffset:0" />
  <path
     d="m 286.95393,151.59644 c 60.25877,18.4504 64.57218,70.01766 14.39741,93.81849 L 170.66824,202.6948 286.95393,151.59644 z"
     id="path2428"
     style="fill:#d7adad;fill-opacity:1;stroke:#000000;stroke-width:1.00000143;stroke-linecap:butt;stroke-miterlimit:4;stroke-opacity:1;stroke-dasharray:none;stroke-dashoffset:0" />
  <path
     d="m 298.50236,243.69239 c -0.30124,73.55257 -46.47555,110.39876 -125.58934,131.24791 l -0.803,-171.95441 126.39234,40.7065 z"
     id="path3202"
     style="fill:#ffffff;fill-opacity:1;stroke:#000000;stroke-width:1;stroke-linecap:butt;stroke-miterlimit:4;stroke-opacity:1;stroke-dasharray:none;stroke-dashoffset:0" />
  <path
     d="M 440.32402,449.85935 C 369.47711,418.41664 304.12651,323.35583 301.43996,246.11212 l 138.88406,48.65577 0,155.09146 z"
     id="path3204"
     style="fill:#ffffff;fill-opacity:1;stroke:#000000;stroke-width:1;stroke-linecap:butt;stroke-miterlimit:4;stroke-opacity:1;stroke-dasharray:none;stroke-dashoffset:0" />
  <path
     d="m 299.30378,575.53976 c 5.60936,-75.55622 63.62909,-149.77351 141.59223,-127.00694 l 0,174.52109 -141.59223,-47.51415 z"
     id="path3206"
     style="fill:#ffffff;fill-opacity:1;stroke:#000000;stroke-width:0.99999994;stroke-linecap:butt;stroke-miterlimit:4;stroke-opacity:1;stroke-dasharray:none;stroke-dashoffset:0" />
  <path
     d="M 171.79724,374.58844 C 244.85119,405.33271 284.10573,494.64575 295.0533,574.734 l -124.72928,-45.49207 1.47322,-154.65349 z"
     id="path3208"
     style="fill:#ffffff;fill-opacity:1;stroke:#000000;stroke-width:0.99999994;stroke-linecap:butt;stroke-miterlimit:4;stroke-opacity:1;stroke-dasharray:none;stroke-dashoffset:0" />
  <path
     d="M 440.41056,449.67659 C 519.99857,409.6375 546.20036,329.23391 557.10067,242.45082 l -116.69011,52.98314 0,154.24263 z"
     id="path3207"
     style="fill:#501616;fill-opacity:1;stroke:#000000;stroke-width:1;stroke-linecap:butt;stroke-miterlimit:4;stroke-opacity:1;stroke-dasharray:none;stroke-dashoffset:0" />
  <path
     d="m 557.96095,242.74875 c 1.50268,78.34835 54.19774,122.29484 117.27463,120.21781 l 0.803,-170.24319 -118.07763,50.02538 z"
     id="path3209"
     style="fill:#501616;fill-opacity:1;stroke:#000000;stroke-width:1;stroke-linecap:butt;stroke-miterlimit:4;stroke-opacity:1;stroke-dasharray:none;stroke-dashoffset:0" />
  <path
     d="M 558.53169,572.03581 C 555.61772,505.83428 507.6076,425.98225 438.62959,452.25228 l 2.40899,169.61409 117.49311,-49.83056 z"
     id="path3211"
     style="fill:#501616;fill-opacity:1;stroke:#000000;stroke-width:1;stroke-linecap:butt;stroke-miterlimit:4;stroke-opacity:1;stroke-dasharray:none;stroke-dashoffset:0" />
  <path
     d="M 675.94958,364.87984 C 602.38606,400.10925 570.94067,493.3383 560.86546,569.69661 l 115.88712,-49.83054 -0.803,-154.98623 z"
     id="path3213"
     style="fill:#501616;fill-opacity:1;stroke:#000000;stroke-width:1;stroke-linecap:butt;stroke-miterlimit:4;stroke-opacity:1;stroke-dasharray:none;stroke-dashoffset:0" />
  <path
     d="M 172.44563,202.37821 408.8742,96.663922 l 266.42858,94.999998 1.42857,327.85715 -235,102.85714 -271.42858,-92.14286 2.14286,-327.85714 z"
     id="path3210"
     style="fill:none;stroke:#000000;stroke-width:2;stroke-linecap:butt;stroke-linejoin:miter;stroke-miterlimit:4;stroke-opacity:1;stroke-dasharray:none" />
  <path
     d="m 171.73134,202.37821 267.85715,91.42857 0.71429,327.85715"
     id="path3212"
     style="fill:none;stroke:#000000;stroke-width:2;stroke-linecap:butt;stroke-linejoin:miter;stroke-miterlimit:4;stroke-opacity:1;stroke-dasharray:none" />
  <path
     d="m 439.58849,293.80678 c 7.85714,-5 235.71429,-101.42857 235.71429,-101.42857"
     id="path3214"
     style="fill:none;stroke:#000000;stroke-width:2;stroke-linecap:butt;stroke-linejoin:miter;stroke-miterlimit:4;stroke-opacity:1;stroke-dasharray:none" />
  <path
     d="m 94.25857,563.0973 c 272.04734,94.90023 272.04734,94.90023 272.04734,94.90023"
     id="path2903"
     style="fill:none;stroke:#000000;stroke-width:1px;stroke-linecap:butt;stroke-linejoin:miter;stroke-opacity:1" />
  <path
     d="M 443.0324,623.48166 C 326.76414,673.81424 326.76414,673.81424 326.76414,673.81424"
     id="path2907"
     style="fill:none;stroke:#000000;stroke-width:1px;stroke-linecap:butt;stroke-linejoin:miter;stroke-opacity:1" />
  <path
     d="M 171.38349,529.01148 C 63.415989,575.75066 63.415989,575.75066 63.415989,575.75066"
     id="path2907-7"
     style="fill:none;stroke:#000000;stroke-width:1px;stroke-linecap:butt;stroke-linejoin:miter;stroke-opacity:1" />
  <path
     d="m 312.52912,578.914 c 272.04734,94.90023 272.04734,94.90023 272.04734,94.90023"
     id="path2903-4"
     style="fill:none;stroke:#000000;stroke-width:1px;stroke-linecap:butt;stroke-linejoin:miter;stroke-opacity:1" />
  <path
     d="m 561.34198,571.59615 c 134.12169,46.78664 134.12169,46.78664 134.12169,46.78664"
     id="path2903-9"
     style="fill:none;stroke:#000000;stroke-width:1px;stroke-linecap:butt;stroke-linejoin:miter;stroke-opacity:1" />
  <path
     d="M 671.3509,609.00887 C 548.58569,661.02042 548.58569,661.02042 548.58569,661.02042"
     id="path2907-4"
     style="fill:none;stroke:#000000;stroke-width:1px;stroke-linecap:butt;stroke-linejoin:miter;stroke-opacity:1" />
  <g
     transform="translate(-18.040045,-45.875308)"
     id="flowRoot3025"
     style="font-size:56px;font-style:normal;font-variant:normal;font-weight:normal;font-stretch:normal;text-align:start;line-height:100%;writing-mode:lr-tb;text-anchor:start;fill:#000000;fill-opacity:1;stroke:none;font-family:Bitstream Vera Sans;-inkscape-font-specification:Bitstream Vera Sans">
    <path
       d="m 215.32031,681.18286 c -4.06512,10e-6 -6.88152,0.46486 -8.44922,1.39453 -1.56771,0.9297 -2.35157,2.51563 -2.35156,4.75781 -1e-5,1.78647 0.58788,3.20378 1.76367,4.25195 1.17577,1.04818 2.77538,1.57227 4.79883,1.57227 2.78905,0 5.02667,-0.98893 6.71289,-2.9668 1.68618,-1.97785 2.52927,-4.60741 2.5293,-7.88867 l 0,-1.12109 z m 10.03516,-2.07813 0,17.47266 -5.03125,0 0,-4.64844 c -1.14846,1.85938 -2.57945,3.23112 -4.29297,4.11524 -1.71356,0.88411 -3.80991,1.32617 -6.28906,1.32617 -3.13543,0 -5.62827,-0.87956 -7.47852,-2.63867 -1.85026,-1.75912 -2.77539,-4.11523 -2.77539,-7.06836 0,-3.4453 1.15299,-6.04296 3.45899,-7.79297 2.30598,-1.74998 5.74673,-2.62498 10.32226,-2.625 l 7.05469,0 0,-0.49219 c -3e-5,-2.31508 -0.76109,-4.1061 -2.2832,-5.37305 -1.52216,-1.2669 -3.65953,-1.90036 -6.41211,-1.90039 -1.75002,3e-5 -3.45444,0.20966 -5.11329,0.62891 -1.65886,0.4193 -3.25391,1.0482 -4.78515,1.88672 l 0,-4.64844 c 1.84114,-0.71091 3.62759,-1.24411 5.35937,-1.59961 1.73176,-0.35544 3.41796,-0.53317 5.0586,-0.5332 4.42966,3e-5 7.73825,1.14846 9.92578,3.44531 2.18747,2.2969 3.28122,5.77867 3.28125,10.44531 z"
       id="path2904" />
  </g>
  <g
     transform="translate(433.96137,-29.815974)"
     id="flowRoot3025-8"
     style="font-size:56px;font-style:normal;font-variant:normal;font-weight:normal;font-stretch:normal;text-align:start;line-height:100%;writing-mode:lr-tb;text-anchor:start;fill:#000000;fill-opacity:1;stroke:none;font-family:Bitstream Vera Sans;-inkscape-font-specification:Bitstream Vera Sans">
    <path
       d="m 219.14844,670.65551 c -0.56513,-0.3281 -1.18036,-0.56963 -1.84571,-0.72461 -0.66538,-0.15492 -1.3991,-0.23239 -2.20117,-0.23242 -2.84376,3e-5 -5.0267,0.92516 -6.54883,2.77539 -1.52214,1.85029 -2.28321,4.50718 -2.2832,7.97071 l 0,16.13281 -5.05859,0 0,-30.625 5.05859,0 0,4.75781 c 1.05728,-1.85935 2.43358,-3.2402 4.12891,-4.14258 1.69529,-0.90231 3.75519,-1.35348 6.17968,-1.35351 0.34634,3e-5 0.72915,0.0228 1.14844,0.0684 0.41925,0.0456 0.88409,0.11396 1.39453,0.20507 z"
       id="path2901" />
  </g>
</svg>
