<svg height="234.333" viewBox="0 0 297.905 234.333" width="297.905" xmlns="http://www.w3.org/2000/svg"><path d="m0 0h297.905v234.333h-297.905z" fill="#fff"/><g stroke="#000"><path d="m169.09 89.933v60.297" fill="none" stroke-width="5"/><path d="m174.368 163.239c-24.321 0-44.036-19.715-44.036-44.036s19.715-44.037 44.036-44.037 44.037 19.716 44.037 44.037-19.716 44.036-44.037 44.036z" fill="none" stroke-width="3"/><path d="m157.016 146.614v-51" fill="none" stroke-width="3"/><path d="m157.016 146.614h-83.176" fill="none" stroke-width="3"/><path d="m193.59 95.614v-53.681" fill="none" stroke-width="3"/><path d="m171.944 143.433h10.892" fill="none" stroke-width="3"/><path d="m182.836 143.433-2.8 4.2 11.2-4.2-11.2-4.2z" stroke-width="3"/><path d="m170.59 94.683h24.354" fill="none" stroke-width="3"/><path d="m193.59 143.433v53.75" fill="none" stroke-width="3"/></g><text transform="translate(211.227 184.667)"><tspan fill="#656565" font-family="Avenir-Medium" font-size="36" x="-10.008" y="11">S</tspan></text><text transform="translate(87.344 125)"><tspan fill="#656565" font-family="Avenir-Medium" font-size="36" x="-14.004" y="11">G</tspan></text><text transform="translate(211.227 49.666)"><tspan fill="#656565" font-family="Avenir-Medium" font-size="36" x="-13.338" y="11">D</tspan></text></svg>